<svg xmlns="http://www.w3.org/2000/svg" viewBox="0 0 200 200">
  <defs>
    <clipPath id="wifiClipMarkFun">
      <rect x="88" y="0" width="70" height="35"/>
    </clipPath>
  </defs>
  <g clip-path="url(#wifiClipMarkFun)" fill="none" stroke="#ffd23f" stroke-linecap="round">
    <circle cx="123" cy="35" r="12" stroke-width="5"/>
    <circle cx="123" cy="35" r="20" stroke-width="5"/>
    <circle cx="123" cy="35" r="28" stroke-width="5"/>
  </g>
  <circle cx="123" cy="35" r="4" fill="#ffd23f"/>
  <rect x="114" y="38" width="18" height="48" rx="3" fill="#4c1d95"/>
  <polygon points="100,58 50,106 150,106" fill="#06d6a0"/>
  <rect x="58" y="106" width="84" height="58" rx="6" fill="#fff9f0"/>
  <rect x="70" y="119" width="22" height="16" rx="2" fill="#7c3aed"/>
  <circle cx="81" cy="127" r="2" fill="#ffd23f"/>
  <rect x="79" y="135" width="4" height="5" fill="#7c3aed"/>
  <rect x="74" y="140" width="14" height="3" rx="1.5" fill="#7c3aed"/>
  <rect x="96" y="134" width="20" height="30" rx="4" fill="#ff7849"/>
  <circle cx="112" cy="149" r="1.5" fill="#fff9f0"/>
  <g transform="rotate(45 150 148)">
    <rect x="146" y="92" width="8" height="46" rx="4" fill="#fff9f0"/>
    <rect x="141" y="130" width="18" height="30" rx="6" fill="#ff4d8d"/>
  </g>
</svg>
